<svg xmlns="http://www.w3.org/2000/svg" width="1200" height="630" viewBox="0 0 1200 630" fill="none">
  <rect width="1200" height="630" rx="40" fill="#F4F1EA"/>
  <rect x="48" y="48" width="1104" height="534" rx="36" fill="#FFFFFF" stroke="#D7DFEC"/>
  <rect x="92" y="110" width="312" height="410" rx="28" fill="#F7F5F0" stroke="#D7DFEC"/>
  <rect x="436" y="110" width="672" height="410" rx="28" fill="#FCFBF8" stroke="#D7DFEC"/>
  <rect x="126" y="162" width="190" height="18" rx="9" fill="#3E628F" fill-opacity="0.24"/>
  <rect x="126" y="208" width="154" height="16" rx="8" fill="#243349" fill-opacity="0.14"/>
  <rect x="126" y="248" width="168" height="16" rx="8" fill="#243349" fill-opacity="0.14"/>
  <rect x="126" y="288" width="132" height="16" rx="8" fill="#243349" fill-opacity="0.14"/>
  <rect x="126" y="328" width="176" height="16" rx="8" fill="#243349" fill-opacity="0.14"/>
  <rect x="126" y="368" width="144" height="16" rx="8" fill="#243349" fill-opacity="0.14"/>
  <rect x="480" y="160" width="248" height="22" rx="11" fill="#243349" fill-opacity="0.12"/>
  <rect x="480" y="212" width="572" height="18" rx="9" fill="#243349" fill-opacity="0.08"/>
  <rect x="480" y="248" width="544" height="18" rx="9" fill="#243349" fill-opacity="0.08"/>
  <rect x="480" y="284" width="590" height="18" rx="9" fill="#243349" fill-opacity="0.08"/>
  <rect x="480" y="340" width="560" height="120" rx="22" fill="#8CA0D6" fill-opacity="0.16" stroke="#91A4D7"/>
  <path d="M516 390H888" stroke="#3E628F" stroke-width="16" stroke-linecap="round" stroke-opacity="0.24"/>
  <path d="M516 430H1046" stroke="#3E628F" stroke-width="16" stroke-linecap="round" stroke-opacity="0.18"/>
  <path d="M516 470H966" stroke="#3E628F" stroke-width="16" stroke-linecap="round" stroke-opacity="0.18"/>
  <text x="92" y="84" fill="#3E628F" font-family="Segoe UI, Microsoft YaHei, sans-serif" font-size="28" font-weight="700">LessonPilot</text>
  <text x="92" y="562" fill="#243349" font-family="Segoe UI, Microsoft YaHei, sans-serif" font-size="52" font-weight="700">10 分钟，搞定一份好教案</text>
  <text x="92" y="602" fill="#6C7A90" font-family="Segoe UI, Microsoft YaHei, sans-serif" font-size="24">结构可见，AI 内联，操作极简</text>
</svg>
